HIERARCHY
ROOT pelvis
{
  OFFSET 0 100 0
  CHANNELS 6 Xposition Yposition Zposition Zrotation Xrotation Yrotation
  JOINT pelvis_right_femur
  {
    OFFSET -10.78128 -3.44521 -0.5502486
    CHANNELS 3 Zrotation Xrotation Yrotation
    JOINT right_femur_tibia
    {
      OFFSET -0.8047443 -44.0398 -0.1307829
      CHANNELS 3 Zrotation Xrotation Yrotation
      JOINT right_tibia_foot
      {
        OFFSET 3.006224 -47.83518 -5
        CHANNELS 3 Zrotation Xrotation Yrotation
        End Site
        {
          OFFSET 0 -5 15
        }
      }
    }
  }
  JOINT pelvis_left_femur
  {
    OFFSET 10.78128 -3.44521 -0.5502486
    CHANNELS 3 Zrotation Xrotation Yrotation
    JOINT left_femur_tibia
    {
      OFFSET 0.8047443 -44.0398 -0.1307829
      CHANNELS 3 Zrotation Xrotation Yrotation
      JOINT left_tibia_foot
      {
        OFFSET -4.370144 -48.10324 -4.275266
        CHANNELS 3 Zrotation Xrotation Yrotation
        End Site
        {
          OFFSET 0 -5 15
        }
      }
    }
  }
  JOINT pelvis_spine1
  {
    OFFSET 0 6.468898 -3.129235
    CHANNELS 3 Zrotation Xrotation Yrotation
    JOINT spine1
    {
      OFFSET 0 23.15396 4.99043
      CHANNELS 3 Zrotation Xrotation Yrotation
      JOINT spine2
      {
        OFFSET 0 20.79997 -5.064912
        CHANNELS 3 Zrotation Xrotation Yrotation
        JOINT neck
        {
          OFFSET 0 14.38658 9.616178
          CHANNELS 3 Zrotation Xrotation Yrotation
          End Site
          {
            OFFSET 0 20 0
          }
        }
      }
      JOINT right_manubrium
      {
        OFFSET -5.722621 16.35077 3.967754
        CHANNELS 3 Zrotation Xrotation Yrotation
        JOINT right_clavicle
        {
          OFFSET -13.16364 1.694482 -4.693211
          CHANNELS 3 Zrotation Xrotation Yrotation
          JOINT right_humerus
          {
            OFFSET -28.5034 -0.3100689 -2.792744
            CHANNELS 3 Zrotation Xrotation Yrotation
            JOINT right_radius
            {
              OFFSET -25.15693 0.02248979 -1.271978
              CHANNELS 3 Zrotation Xrotation Yrotation
              End Site
              {
                OFFSET -15 0 0
              }
            }
          }
        }
      }
      JOINT left_manubrium
      {
        OFFSET 5.722621 16.35077 3.967754
        CHANNELS 3 Zrotation Xrotation Yrotation
        JOINT left_clavicle
        {
          OFFSET 13.16364 1.694482 -4.693211
          CHANNELS 3 Zrotation Xrotation Yrotation
          JOINT left_humerus
          {
            OFFSET 29.39168 -1.063119 -2.237045
            CHANNELS 3 Zrotation Xrotation Yrotation
            JOINT left_radius
            {
              OFFSET 24.59957 -0.9528479 0.9047498
              CHANNELS 3 Zrotation Xrotation Yrotation
              End Site
              {
                OFFSET 15 -0 -0
              }
            }
          }
        }
      }
    }
  }
}
MOTION
Frames: 23
Frame Time: 0.0416666666667
-1072.325 102.2027 2481.363 -5.328591 -2.24887 -57.82918 4.898337 17.0519 0.742361 -0 13.72253 -0 -8.639171 -15.85274 -0.9258305 3.336992 -22.33206 -3.089358 -0 9.869751 -0 0.6226553 -2.963027 17.46684 -0.0695503 -3.902423 7.650059 0.3604437 14.78392 -4.751227 -0.07788046 20.58375 5.444592 4.753676 -16.27021 3.41693 2.148169 -27.31648 13.13913 83.79701 19.75366 -9.748742 -0 0 25.33255 -24.1727 14.12995 13.21293 4.314792 -24.29682 -8.556694 -98.16968 8.965831 36.06532 -0 0 0.3734685 10.19011 14.6185 0.5349352
-1077.098 101.6226 2485.764 -5.539396 -2.828549 -58.51847 3.282545 18.84171 0.4068211 -0 18.09306 -0 -9.534218 -13.3475 -0.166102 1.344195 -20.36577 -5.52079 -0 9.509186 -0 0.3847015 -3.378068 18.30096 -0.1992592 -3.95349 7.502813 0.2621699 14.52602 -4.543561 -0.04777238 20.67741 5.661606 4.813972 -16.39866 3.682154 2.158411 -27.27648 13.03347 83.59881 20.06753 -9.288929 -0 0 25.18293 -24.6797 14.04365 13.78247 4.428017 -23.91176 -8.310999 -98.27241 9.049661 36.12842 -0 0 0.997268 10.20248 14.79297 0.5196866
-1082.13 101.4549 2490.329 -5.937614 -3.884593 -59.03289 1.379777 19.90954 -0.2008208 -0 23.87173 -0 -11.3876 -8.204027 1.216511 -0.9609182 -17.82908 -8.747756 -0 10.93821 -0 -0.149845 -4.067358 19.28308 -0.2963008 -3.811698 7.291879 0.07435357 14.45717 -4.402111 0.03079898 20.8922 5.800392 4.928277 -16.40093 3.844503 2.17683 -26.94859 12.96505 83.6842 20.39049 -9.174155 -0 0 24.69257 -25.04786 13.93659 13.94203 4.564968 -23.75871 -8.288061 -98.04487 9.29538 35.44237 -0 0 0.9719802 10.44725 15.1323 0.1800468
-1087.27 101.7039 2494.88 -6.522293 -5.185217 -59.23203 -0.3372475 19.70659 -0.8109416 -0 31.07588 -0 -13.72794 -1.060899 2.963461 -3.017391 -14.77262 -11.85817 -0 12.99739 -0 -0.7244419 -5.014394 20.18719 -0.3333175 -3.52959 7.065548 -0.1361563 14.59172 -4.373038 0.1398271 21.16778 5.817119 5.048387 -16.28512 3.869599 2.200441 -26.41732 12.95605 84.02964 20.60007 -9.456062 -0 0 23.9738 -25.17553 13.86779 13.6681 4.68828 -23.87452 -8.483652 -97.55 9.643927 34.18834 -0 0 0.2939794 10.85751 15.55225 -0.3851765
-1092.321 102.3563 2499.26 -7.157841 -6.358439 -59.04412 -1.43215 17.68413 -1.222485 -0 39.07176 -0 -15.92371 6.545608 4.559382 -4.470887 -11.26803 -14.00748 -0 14.8353 -0 -0.9860519 -6.185197 20.82149 -0.2931387 -3.186315 6.859544 -0.3122315 14.91246 -4.491803 0.2525579 21.43963 5.700565 5.141889 -16.09262 3.744022 2.209175 -25.7712 13.00843 84.60691 20.59381 -10.17955 -0 0 23.11783 -25.04514 13.85976 13.00612 4.800176 -24.27844 -8.861192 -96.84286 10.00613 32.53468 0 0 -1.037506 11.39516 15.96457 -1.12098
-1097.1 103.3562 2503.353 -7.660086 -7.020809 -58.50889 -1.684723 13.5768 -1.379766 -0 46.48552 -0 -17.3065 12.65521 5.386906 -5.214984 -7.443288 -14.80828 -0 15.9385 -0 -0.738873 -7.495136 21.05311 -0.1677888 -2.86805 6.698986 -0.416122 15.37763 -4.776563 0.3399216 21.65182 5.464143 5.192758 -15.87766 3.470666 2.170229 -25.08906 13.10717 85.38131 20.3025 -11.36189 -0 0 22.19424 -24.70746 13.89837 12.04717 4.934428 -24.96998 -9.361304 -95.97086 10.28385 30.61943 0 0 -3.017628 12.04384 16.29306 -2.009363
-1101.498 104.5664 2507.109 -7.918058 -6.974479 -57.76733 -1.206219 7.660693 -1.324275 -0 51.59519 -0 -17.41212 15.69665 5.043975 -5.346891 -3.45368 -14.48291 -0 16.11128 -0 -0.127192 -8.867117 20.79893 0.04281312 -2.653356 6.602261 -0.4291813 15.92725 -5.225732 0.3760354 21.76375 5.134741 5.195226 -15.69 3.064364 2.046694 -24.43404 13.22651 86.30535 19.69584 -12.97705 -0 0 21.257 -24.2522 13.94597 10.90689 5.141098 -25.92545 -9.908366 -94.98189 10.38774 28.55654 0 0 -5.620312 12.79203 16.47927 -3.046356
-1105.497 105.7687 2510.545 -7.895532 -6.314215 -56.99448 -0.3654796 0.7367917 -1.151708 -0 53.0414 -0 -16.30644 15.21556 3.688692 -5.090152 0.5106298 -13.67416 -0 15.3915 -0 0.4138665 -10.35519 20.04155 0.329685 -2.600186 6.580758 -0.3497759 16.49065 -5.816581 0.3431844 21.75524 4.745958 5.149569 -15.5645 2.551321 1.808883 -23.8496 13.3365 87.31663 18.7906 -14.94773 -0 0 20.34568 -23.78146 13.95776 9.709377 5.470161 -27.09382 -10.41847 -93.9301 10.25478 26.44495 0 0 -8.77509 13.61962 16.48684 -4.220638
-1109.145 106.7134 2513.706 -7.538937 -5.33071 -56.32153 0.4383066 -6.230569 -0.9869904 -0 50.42869 -0 -14.51267 12.03952 1.935781 -4.716594 4.199481 -13.0297 -0 13.94446 -0 0.4787464 -12.15046 18.89084 0.6717379 -2.733835 6.633603 -0.1918272 16.99624 -6.505236 0.2361602 21.63044 4.336675 5.062175 -15.51837 1.971581 1.446147 -23.35565 13.40931 88.34347 17.65951 -17.14816 -0 0 19.48008 -23.38935 13.89616 8.573764 5.956099 -28.39482 -10.81218 -92.87361 9.865626 24.3697 0 0 -12.34709 14.4943 16.30714 -5.502192
-1112.519 107.1937 2516.632 -6.758452 -4.300283 -55.80065 0.9832906 -12.55922 -0.9234004 -0 44.44148 -0 -12.5553 7.749055 0.364701 -4.46826 7.346757 -12.85903 -0 12.02348 -0 0.05560535 -14.3816 17.61029 1.033577 -3.039524 6.740992 0.01753028 17.38273 -7.230329 0.06464923 21.4179 3.952081 4.9478 -15.55546 1.380904 0.9755742 -22.94759 13.42502 89.31653 16.43122 -19.4181 -0 0 18.65513 -23.14734 13.74118 7.601908 6.604793 -29.72304 -11.03137 -91.86527 9.256227 22.39645 0 0 -16.13153 15.37725 15.96271 -6.841966
-1115.715 107.1068 2519.362 -5.523975 -3.35639 -55.41896 1.284246 -18.02194 -0.975625 -0 36.45892 -0 -10.73358 3.867517 -0.7340898 -4.488787 9.780835 -13.07423 -0 9.994787 -0 -0.4079353 -16.90805 16.53535 1.367727 -3.464064 6.862444 0.2430407 17.60968 -7.921797 -0.1477068 21.16425 3.641942 4.83005 -15.67314 0.8471122 0.4435028 -22.60127 13.37628 90.18038 15.27249 -21.58498 -0 0 17.84476 -23.09361 13.49532 6.867036 7.384989 -30.96051 -11.05521 -90.94236 8.515759 20.56738 0 0 -19.86956 16.23218 15.50434 -8.178262
-1118.847 106.4714 2521.958 -3.952297 -2.510991 -55.13058 1.495632 -22.67089 -1.123007 -0 27.96903 -0 -9.206364 1.321657 -1.292406 -4.789673 11.50508 -13.36416 -0 8.335384 -0 -0.3436115 -19.33173 15.9079 1.62372 -3.927899 6.945102 0.4489914 17.6643 -8.51365 -0.3679504 20.92257 3.451785 4.737087 -15.86492 0.4379111 -0.08266205 -22.28383 13.27013 90.89947 14.35223 -23.48872 -0 0 17.01829 -23.22618 13.18241 6.403694 8.22821 -31.99633 -10.90744 -90.12231 7.767339 18.90492 0 0 -23.28472 17.03004 15.00097 -9.44416
-1122.053 105.4064 2524.52 -2.292754 -1.74341 -54.87928 1.760856 -26.54367 -1.391931 -0 20.12659 -0 -8.089666 0.3406305 -1.360269 -5.268916 12.68657 -13.41463 -0 7.557808 -0 0.4610784 -21.19936 15.70823 1.762438 -4.344472 6.94124 0.606928 17.56236 -8.95672 -0.5612419 20.73928 3.408527 4.693243 -16.11608 0.2028923 -0.5310292 -21.96612 13.12544 91.45725 13.79906 -25.00409 -0 0 16.163 -23.50233 12.84044 6.202129 9.040786 -32.74793 -10.64874 -89.40759 7.135811 17.42268 0 0 -26.12987 17.74662 14.52551 -10.57342
-1125.492 104.0905 2527.17 -0.8401142 -1.062505 -54.61007 2.133334 -29.50779 -1.857691 -0 13.62719 -0 -7.461817 0.6389734 -1.063552 -5.768914 13.57001 -13.04275 -0 8.10787 -0 1.666426 -22.20341 15.62332 1.769047 -4.640632 6.826731 0.7002041 17.3424 -9.226427 -0.6989632 20.64456 3.509047 4.711046 -16.39777 0.1584055 -0.844103 -21.63254 12.96672 91.851 13.67014 -26.05546 -0 0 15.29995 -23.84917 12.51091 6.212483 9.726526 -33.17563 -10.35575 -88.79671 6.714807 16.13792 0 0 -28.22788 18.35732 14.14081 -11.50608
-1129.32 102.7266 2530.025 0.1501027 -0.5148352 -54.28412 2.61415 -31.31393 -2.534996 -0 8.838292 -0 -7.333484 1.689369 -0.5898307 -6.13513 14.3608 -12.22426 -0 10.30063 -0 2.642642 -22.22883 15.24784 1.656906 -4.771223 6.609966 0.7238791 17.05576 -9.322776 -0.7646784 20.64894 3.720479 4.788417 -16.66808 0.2840021 -0.9917454 -21.28557 12.81722 92.08638 13.94489 -26.61995 -0 0 14.48419 -24.18505 12.22862 6.360712 10.21073 -33.2849 -10.09706 -88.29439 6.546935 15.07935 0 0 -29.49055 18.83531 13.88987 -12.1948
-1133.65 101.5192 2533.165 0.5060652 -0.1620284 -53.9021 3.239377 -31.75389 -3.25903 -0 5.981009 -0 -7.641942 2.959956 -0.1626381 -6.247025 15.11368 -11.05772 -0 14.30731 -0 2.943295 -21.25007 14.38607 1.460368 -4.7237 6.326945 0.6812196 16.75578 -9.263706 -0.755881 20.74568 3.992683 4.912107 -16.88194 0.5321135 -0.9733073 -20.94509 12.69436 92.17353 14.54305 -26.71822 -0 0 13.79094 -24.4431 12.0155 6.570632 10.45413 -33.11647 -9.918034 -87.91608 6.623644 14.28818 0 0 -29.91131 19.15509 13.79201 -12.61018
-1138.51 100.6579 2536.611 0.1562662 -0.0574971 -53.52496 4.09329 -30.77886 -3.70503 -0 5.169416 -0 -8.279503 4.054229 0.01516576 -6.027744 15.65808 -9.71355 -0 20.1513 -0 2.580943 -19.24862 13.19918 1.221604 -4.513511 6.027514 0.579565 16.48911 -9.075831 -0.6816202 20.91614 4.274955 5.064285 -17.00363 0.844683 -0.8105092 -20.644 12.60881 92.12424 15.35489 -26.39748 -0 0 13.29768 -24.58618 11.87998 6.78268 10.45234 -32.73019 -9.838504 -87.68621 6.900295 13.81442 0 0 -29.53994 19.29757 13.84496 -12.7415
-1143.818 100.2936 2540.309 -0.8546621 -0.2353207 -53.27426 5.202353 -28.49717 -3.579804 -0 6.260751 -0 -9.126081 4.737229 -0.1667579 -5.461057 15.59641 -8.38536 -0 27.66225 -0 1.926812 -16.29247 12.09366 0.9788259 -4.174971 5.761484 0.4278421 16.29022 -8.786675 -0.5580766 21.13531 4.52821 5.228054 -17.01452 1.168292 -0.5368987 -20.42268 12.5657 91.94948 16.26876 -25.71402 -0 0 13.07118 -24.60865 11.82054 6.963593 10.2257 -32.18943 -9.858342 -87.63382 7.31572 13.71234 0 0 -28.45443 19.25228 14.03025 -12.59206
-1149.386 100.5042 2544.134 -2.348061 -0.7074151 -53.2962 6.416692 -25.07325 -2.832161 -0 8.66152 -0 -10.05102 4.872618 -0.6884328 -4.627056 14.41207 -7.236948 -0 36.3752 -0 1.384041 -12.69911 11.46683 0.759927 -3.752908 5.570117 0.2365959 16.17851 -8.420695 -0.4044749 21.37531 4.729425 5.389538 -16.91448 1.463065 -0.189152 -20.32421 12.56638 91.65693 17.18786 -24.72139 -0 0 13.1622 -24.52853 11.83122 7.107512 9.807467 -31.55069 -9.964148 -87.78805 7.807365 14.03692 0 0 -26.7416 19.01553 14.31842 -12.17143
-1154.971 101.2632 2547.925 -4.022526 -1.45832 -53.69236 7.417357 -20.63997 -1.693372 -0 11.34218 -0 -10.8929 4.33905 -1.429356 -3.715059 11.68773 -6.353496 -0 45.4194 -0 1.13957 -9.076267 11.52004 0.5811586 -3.297788 5.483084 0.02019013 16.15703 -7.999152 -0.2405454 21.60646 4.870246 5.536679 -16.71948 1.705539 0.1978235 -20.3908 12.60958 91.2493 18.03587 -23.46666 -0 0 13.60458 -24.37595 11.90646 7.232262 9.235747 -30.85875 -10.13296 -88.17462 8.318843 14.84055 0 0 -24.49081 18.58665 14.67151 -11.4883
-1160.348 102.4325 2551.534 -5.525545 -2.425173 -54.45344 7.875552 -15.3342 -0.5201674 -0 13.19405 -0 -11.4805 3.015618 -2.227349 -2.941762 7.3408 -5.735753 -0 53.48216 -0 1.160766 -6.126832 12.23675 0.4485747 -2.863788 5.518144 -0.1999453 16.21172 -7.542535 -0.08533019 21.79723 4.953036 5.656333 -16.45838 1.888042 0.5928603 -20.66003 12.69161 90.7241 18.75579 -21.99346 -0 0 14.41395 -24.18224 12.04399 7.373812 8.549948 -30.14548 -10.33279 -88.81204 8.801406 16.16713 0 0 -21.79772 17.96507 15.04286 -10.54703
-1165.384 103.7859 2554.879 -6.565224 -3.459557 -55.44878 7.663617 -9.441286 0.4010846 -0 13.53966 -0 -11.72899 0.8694058 -2.894177 -2.383269 1.708176 -5.34021 -0 58.93478 -0 1.322108 -4.307907 13.43735 0.3603082 -2.507229 5.68075 -0.3928991 16.31125 -7.0735 0.0436647 21.91496 4.986725 5.731674 -16.16991 2.016856 0.9693935 -21.15891 12.80585 90.0754 19.30705 -20.349 -0 0 15.58286 -23.97175 12.24499 7.579766 7.790429 -29.43 -10.52179 -89.70648 9.212604 18.04065 0 0 -18.77178 17.15102 15.37683 -9.350095
-1170.062 105.0468 2557.955 -6.99867 -4.307584 -56.48906 6.966822 -3.488991 0.9209972 -0 12.41609 -0 -11.71689 -1.94245 -3.209523 -1.863559 -4.592194 -5.095699 -0 60.18274 -0 1.474509 -3.592459 14.81759 0.3087167 -2.282339 5.962139 -0.5195303 16.40857 -6.618019 0.131949 21.92972 4.983802 5.742207 -15.89894 2.110083 1.306413 -21.89421 12.94164 89.29839 19.66469 -18.59141 -0 0 17.07118 -23.75853 12.51115 7.901418 6.999779 -28.71894 -10.64895 -90.84441 9.515351 20.44588 0 0 -15.5411 16.15214 15.61233 -7.908421
